 <svg  version="1.0" xmlns="http://www.w3.org/2000/svg"  width="300.000000pt" height="282.000000pt" viewBox="0 0 300.000000 282.000000"  preserveAspectRatio="xMidYMid meet">  <g transform="translate(0.000000,282.000000) scale(0.050000,-0.050000)" fill="#f46c6c" stroke="none"> <path d="M2565 5111 c-410 -191 -502 -516 -206 -730 147 -107 129 -133 -79 -114 -165 16 -204 -11 -140 -93 158 -200 618 -111 569 110 -13 58 -51 99 -256 279 l-76 68 33 83 c40 100 267 286 349 286 39 0 22 -76 -31 -139 -51 -60 -52 -64 -17 -102 92 -102 269 41 269 218 0 174 -195 236 -415 134z"/> <path d="M4704 5084 c-64 -64 -216 -518 -253 -754 -12 -72 -6 -87 49 -140 91 -87 146 -41 200 170 41 155 401 440 556 440 20 0 57 21 82 47 l44 48 -63 52 c-101 85 -210 54 -445 -126 l-136 -104 48 97 c89 176 105 249 63 279 -51 37 -102 34 -145 -9z"/> <path d="M1417 5034 c-150 -114 -457 -589 -457 -707 0 -87 128 -207 221 -207 69 0 233 99 363 218 l110 101 37 -81 c53 -119 133 -178 240 -178 137 0 182 120 63 169 -122 51 -164 216 -102 398 38 110 38 110 -138 256 -145 121 -211 127 -337 31z m231 -197 c41 -59 4 -121 -173 -288 -291 -276 -335 -237 -114 101 141 215 227 272 287 187z"/> <path d="M3195 5072 c-22 -16 -35 -53 -35 -98 0 -39 -18 -112 -39 -162 -108 -252 -143 -525 -75 -589 67 -63 94 -53 191 66 124 151 339 361 355 346 7 -8 -10 -77 -39 -155 -63 -169 -65 -203 -16 -247 57 -52 74 -43 263 136 254 241 260 243 260 86 0 -176 68 -275 189 -275 130 0 203 117 101 163 -55 26 -62 42 -80 197 -35 296 -122 331 -366 145 -104 -80 -108 -79 -81 30 25 99 -10 176 -91 196 -54 14 -99 -11 -289 -157 -151 -116 -160 -113 -94 36 97 219 -1 398 -154 282z"/> <path d="M4063 4075 c-100 -163 -343 -820 -413 -1117 l-36 -152 47 -63 c59 -79 85 -79 153 2 236 280 483 459 536 387 72 -96 -297 -465 -503 -504 -82 -15 -96 -34 -67 -89 95 -176 480 8 711 341 278 401 -132 653 -496 304 -124 -120 -77 52 158 565 149 326 144 301 62 351 -88 54 -105 51 -152 -25z"/> <path d="M3085 3410 c-306 -156 -465 -721 -250 -891 139 -108 333 -88 478 51 167 160 79 278 -111 150 -153 -104 -271 -62 -258 93 l6 77 170 0 c199 0 266 34 351 180 157 268 -93 488 -386 340z m237 -182 c44 -53 -99 -172 -196 -164 -99 8 -102 39 -14 124 81 79 164 95 210 40z"/> <path d="M1571 3361 c-129 -142 -142 -657 -21 -796 l47 -55 93 49 c51 26 123 83 160 127 71 83 110 84 110 2 0 -199 260 -184 465 27 169 175 194 210 229 318 70 224 -66 315 -173 115 -233 -435 -472 -509 -332 -103 65 188 65 245 2 286 -78 52 -122 22 -180 -124 -79 -198 -249 -436 -285 -400 -7 8 -2 88 11 178 48 324 49 346 13 382 -44 44 -96 42 -139 -6z"/> <path d="M3174 2385 c-47 -53 -157 -303 -243 -555 -42 -121 -78 -223 -81 -226 -3 -3 -50 8 -105 26 -195 64 -367 -44 -492 -310 -202 -430 79 -684 408 -368 91 88 93 87 109 -37 23 -170 70 -217 175 -177 l51 19 9 317 9 316 112 325 c62 178 141 379 174 446 77 151 64 212 -52 247 -27 8 -53 0 -74 -23z m-425 -976 c74 -75 12 -198 -156 -311 -187 -124 -226 -103 -161 88 62 183 235 304 317 223z"/> <path d="M3530 2110 c-16 -27 -43 -72 -60 -99 -54 -88 -4 -191 92 -191 65 0 178 124 178 197 0 118 -153 186 -210 93z"/> <path d="M788 1778 c-320 -93 -532 -789 -290 -952 154 -104 517 55 633 277 64 122 -103 159 -209 46 -80 -84 -208 -154 -269 -145 -124 18 9 458 172 564 78 52 100 27 84 -98 -20 -159 133 -174 192 -18 81 215 -88 392 -313 326z"/> <path d="M5220 1748 c-84 -36 -159 -106 -251 -230 -241 -326 -69 -695 241 -520 80 46 112 56 104 34 -7 -17 -37 -110 -66 -207 -69 -229 -119 -325 -167 -325 -36 0 -141 104 -141 141 0 30 -79 62 -121 49 -115 -37 62 -365 223 -413 134 -40 281 120 360 390 141 481 185 611 229 678 148 224 -150 516 -411 403z m172 -191 c48 -78 -19 -249 -135 -346 -71 -60 -170 -69 -181 -16 -34 159 244 478 316 362z"/> <path d="M1683 1677 c-331 -164 -513 -636 -321 -832 211 -216 687 156 731 570 26 256 -170 381 -410 262z m189 -229 c40 -157 -226 -508 -323 -427 -73 60 -1 245 151 387 112 105 154 114 172 40z"/> <path d="M3897 1595 c-18 -58 -75 -202 -125 -320 -107 -249 -109 -271 -40 -353 68 -81 124 -79 193 8 113 141 430 368 476 340 10 -7 19 -88 19 -181 0 -183 32 -249 121 -249 106 0 151 66 110 165 -18 44 -25 133 -22 271 5 197 3 208 -44 244 -107 85 -143 73 -415 -140 -174 -136 -179 -136 -111 -3 98 196 70 323 -71 323 -52 -1 -61 -11 -91 -105z"/> <path d="M3386 1575 c-25 -39 -146 -393 -178 -522 -37 -148 -13 -246 67 -266 68 -17 113 38 145 178 13 58 50 183 82 278 72 214 72 236 2 303 -62 59 -93 67 -118 29z"/> </g> </svg> 